<svg width="35" height="46" viewBox="0 0 35 46" fill="none" xmlns="http://www.w3.org/2000/svg">
<path fill-rule="evenodd" clip-rule="evenodd" d="M0 4C0 1.79086 1.79086 0 4 0H31C33.2091 0 35 1.79086 35 4V42C35 44.2091 33.2091 46 31 46H4C1.79086 46 0 44.2091 0 42V4ZM4.84713 11.5011C-0.733301 15.6771 1.20527 28.4479 3.41792 34.5005L3.41785 17.7488C3.41784 16.6442 4.31327 15.7488 5.41785 15.7488H5.52991L5.27448 34.5005C5.27448 34.5005 6.05384 33.2905 7.26073 29.3563C8.46763 25.4221 8.46845 23.6064 8.46845 23.6064L8.29724 23.7352C8.07734 23.9006 7.75728 23.6177 7.87241 23.3677C10.9684 16.6467 4.96419 11.4135 4.84713 11.5011ZM15.8794 15.1316C14.7748 15.1316 13.8794 16.0271 13.8794 17.1316V31.8948C13.8794 32.9994 14.7748 33.8948 15.8794 33.8948H25.7587C26.8633 33.8948 27.7587 32.9994 27.7587 31.8948V17.1316C27.7587 16.0271 26.8633 15.1316 25.7587 15.1316H15.8794ZM15.0864 23.2106C14.5341 23.2106 14.0864 23.6583 14.0864 24.2106C14.0864 24.7629 14.5341 25.2106 15.0864 25.2106H20.1206V30.2631C20.1206 30.8154 20.5683 31.2631 21.1206 31.2631C21.6729 31.2631 22.1206 30.8154 22.1206 30.2631V25.2106H26.5519C27.1042 25.2106 27.5519 24.7629 27.5519 24.2106C27.5519 23.6583 27.1042 23.2106 26.5519 23.2106H22.1206V18.7631C22.1206 18.2109 21.6729 17.7631 21.1206 17.7631C20.5683 17.7631 20.1206 18.2109 20.1206 18.7631V23.2106H15.0864Z" fill="white"/>
</svg>
