<svg width="43" height="54" viewBox="0 0 43 54" fill="none" xmlns="http://www.w3.org/2000/svg">
<g filter="url(#filter0_d_495_159)">
<path fill-rule="evenodd" clip-rule="evenodd" d="M4 4C4 1.79086 5.79086 0 8 0H35C37.2091 0 39 1.79086 39 4V38.205C38.294 37.0707 37.036 36.3156 35.6016 36.3156H8.60156C6.39242 36.3156 4.60156 38.1065 4.60156 40.3156V41.3946C4.60156 43.6037 6.39242 45.3946 8.60156 45.3946H39V46H8C5.79086 46 4 44.2091 4 42V4ZM8.84713 11.5011C3.2667 15.6771 5.20527 28.4479 7.41792 34.5005L7.41785 17.7488C7.41784 16.6442 8.31327 15.7488 9.41785 15.7488H9.52991L9.27448 34.5005C9.27448 34.5005 10.0538 33.2905 11.2607 29.3563C12.4676 25.4221 12.4684 23.6064 12.4684 23.6064L12.2972 23.7352C12.0773 23.9006 11.7573 23.6177 11.8724 23.3677C14.9684 16.6467 8.96419 11.4135 8.84713 11.5011Z" fill="white"/>
</g>
<defs>
<filter id="filter0_d_495_159" x="0" y="0" width="43" height="54" filterUnits="userSpaceOnUse" color-interpolation-filters="sRGB">
<feFlood flood-opacity="0" result="BackgroundImageFix"/>
<feColorMatrix in="SourceAlpha" type="matrix" values="0 0 0 0 0 0 0 0 0 0 0 0 0 0 0 0 0 0 127 0" result="hardAlpha"/>
<feOffset dy="4"/>
<feGaussianBlur stdDeviation="2"/>
<feComposite in2="hardAlpha" operator="out"/>
<feColorMatrix type="matrix" values="0 0 0 0 0 0 0 0 0 0 0 0 0 0 0 0 0 0 0.25 0"/>
<feBlend mode="normal" in2="BackgroundImageFix" result="effect1_dropShadow_495_159"/>
<feBlend mode="normal" in="SourceGraphic" in2="effect1_dropShadow_495_159" result="shape"/>
</filter>
</defs>
</svg>
