<svg width="35" height="46" viewBox="0 0 35 46" fill="none" xmlns="http://www.w3.org/2000/svg">
<path fill-rule="evenodd" clip-rule="evenodd" d="M0 4C0 1.79086 1.79086 0 4 0H31C33.2091 0 35 1.79086 35 4V42C35 44.2091 33.2091 46 31 46H4C1.79086 46 0 44.2091 0 42V4ZM4.84689 11.5009C-0.733545 15.6769 1.20503 28.4478 3.41767 34.5004L3.4176 17.7487C3.4176 16.6441 4.31303 15.7486 5.4176 15.7486H5.52966L5.27424 34.5004C5.27424 34.5004 6.05359 33.2904 7.26049 29.3562C8.46739 25.422 8.4682 23.6063 8.4682 23.6063L8.297 23.7351C8.07709 23.9005 7.75704 23.6175 7.87217 23.3676C10.9682 16.6466 4.96394 11.4133 4.84689 11.5009ZM25.3449 19.3684C25.3449 23.0455 22.373 26.0263 18.707 26.0263C15.041 26.0263 12.0691 23.0455 12.0691 19.3684C12.0691 15.6914 15.041 12.7105 18.707 12.7105C22.373 12.7105 25.3449 15.6914 25.3449 19.3684ZM27.7588 34.8025C27.7588 32.4749 26.8369 30.2426 25.196 28.5967C23.555 26.9508 21.3294 26.0262 19.0088 26.0262C16.6881 26.0262 14.4625 26.9508 12.8216 28.5967C11.1807 30.2426 10.2588 32.4749 10.2588 34.8025H19.0088H27.7588Z" fill="white"/>
</svg>
